<?xml version="1.0" standalone="no"?>
<!DOCTYPE svg PUBLIC "-//W3C//DTD SVG 20010904//EN"
 "http://www.w3.org/TR/2001/REC-SVG-20010904/DTD/svg10.dtd">
<svg version="1.0" xmlns="http://www.w3.org/2000/svg"
 width="848.000000pt" height="848.000000pt" viewBox="0 0 848.000000 848.000000"
 preserveAspectRatio="xMidYMid meet">
<metadata>
Created by potrace 1.14, written by Peter Selinger 2001-2017
</metadata>
<g transform="translate(0.000000,848.000000) scale(0.100000,-0.100000)"
fill="#000000" stroke="none">
<path d="M3973 8324 c-54 -84 -102 -162 -108 -171 -5 -10 -20 -33 -32 -50 -13
-17 -23 -33 -23 -36 0 -3 -16 -29 -35 -58 -20 -30 -40 -61 -45 -69 -5 -8 -28
-43 -50 -78 -22 -34 -40 -65 -40 -68 0 -3 -5 -10 -11 -17 -5 -7 -52 -79 -104
-162 -52 -82 -98 -154 -102 -160 -5 -5 -26 -39 -48 -75 -21 -36 -43 -66 -47
-68 -4 -2 -8 -7 -8 -12 0 -8 -95 -163 -115 -187 -5 -7 -62 -96 -125 -198
l-115 -185 -1442 0 -1443 0 0 -201 0 -201 33 -51 c19 -29 57 -88 85 -132 28
-44 56 -86 62 -92 6 -7 9 -13 6 -13 -3 0 16 -33 43 -72 26 -40 69 -109 96
-153 27 -44 53 -84 58 -90 4 -5 30 -46 57 -90 27 -44 54 -85 60 -92 5 -7 10
-15 10 -18 0 -3 20 -36 44 -73 109 -168 227 -355 289 -456 7 -10 35 -54 62
-97 28 -43 67 -106 89 -141 21 -35 53 -85 71 -113 18 -27 72 -113 120 -190 49
-77 95 -148 103 -157 8 -10 12 -18 8 -18 -4 0 2 -10 14 -22 11 -12 20 -28 20
-35 0 -7 5 -13 10 -13 6 0 10 -5 10 -10 0 -6 9 -23 19 -38 48 -68 351 -552
351 -561 0 -5 3 -11 8 -13 4 -1 23 -28 42 -58 73 -118 142 -226 224 -353 32
-49 60 -96 64 -105 3 -10 14 -26 24 -36 10 -11 18 -26 18 -33 0 -7 4 -13 8
-13 5 0 14 -10 20 -23 19 -36 79 -133 267 -427 23 -36 66 -103 95 -150 29 -47
76 -121 104 -165 28 -45 56 -89 61 -98 10 -17 140 -222 230 -362 120 -188 151
-236 160 -253 9 -15 42 -67 206 -327 21 -33 43 -65 49 -72 5 -7 10 -14 10 -16
0 -4 370 -592 593 -942 39 -60 75 -120 81 -132 11 -21 15 -22 180 -20 l169 2
123 195 c67 107 127 200 133 207 6 7 11 14 11 17 0 6 74 124 88 141 4 6 11 17
15 25 4 8 47 78 97 155 50 77 94 147 97 155 4 8 9 17 13 20 4 3 31 45 61 93
30 48 61 98 69 111 8 13 40 63 70 110 30 48 62 98 70 111 8 12 37 59 64 104
27 44 55 86 62 92 8 6 14 16 14 21 0 5 14 29 30 53 17 24 30 48 30 53 0 5 9
17 20 27 11 10 20 22 20 27 0 5 5 14 10 21 13 14 186 289 231 367 18 30 35 57
39 60 3 3 50 77 105 165 55 88 102 162 105 165 3 3 10 14 17 25 31 53 121 198
162 261 25 38 51 79 58 90 9 15 476 753 543 858 8 13 30 48 48 77 18 30 72
116 120 191 48 76 177 280 287 455 110 174 218 344 240 379 22 35 58 91 80
126 22 34 49 77 60 95 11 17 52 82 90 143 39 61 77 122 85 135 8 13 47 74 85
134 39 61 75 120 81 131 6 11 18 28 27 38 10 10 17 22 17 26 0 4 15 28 33 54
17 26 34 51 37 58 3 6 45 73 93 150 49 76 126 199 173 272 l84 133 0 200 c0
109 -3 198 -7 198 -5 -1 -654 -1 -1445 0 l-1436 1 -28 48 c-15 26 -48 79 -72
117 -86 134 -249 391 -267 422 -5 9 -13 22 -18 27 -22 31 -59 90 -73 119 -9
17 -20 34 -23 37 -4 3 -32 46 -61 95 -30 50 -57 92 -60 95 -3 3 -28 41 -55 85
-60 98 -92 146 -105 162 -5 7 -10 15 -10 18 0 4 -13 26 -30 50 -16 24 -30 48
-30 53 0 6 -3 12 -7 14 -10 4 -73 96 -73 107 0 4 -13 25 -30 47 -16 21 -30 43
-30 47 0 4 -5 13 -11 20 -5 7 -35 51 -65 98 l-54 86 -175 1 -175 0 -97 -154z
m492 -974 c21 -58 49 -136 63 -175 14 -38 27 -74 28 -80 2 -5 21 -62 44 -125
23 -63 49 -135 57 -160 8 -25 18 -54 23 -65 18 -44 42 -114 39 -117 -1 -2 3
-14 10 -26 11 -21 61 -158 137 -377 13 -38 28 -79 33 -90 4 -11 14 -38 21 -60
8 -22 23 -67 35 -100 l22 -60 -116 -76 c-64 -42 -189 -124 -279 -183 -90 -60
-166 -106 -168 -103 -4 4 -7 1725 -4 1892 2 58 2 57 55 -95z m-384 123 c4 -45
1 -1915 -4 -1919 -3 -3 -46 22 -97 55 -50 34 -95 61 -99 61 -5 0 -11 3 -13 8
-1 4 -41 32 -88 62 -47 30 -89 58 -95 63 -35 26 -148 97 -156 97 -13 0 -11 36
6 76 8 19 15 38 16 42 1 4 6 18 11 32 8 19 32 92 43 130 1 3 7 19 14 35 6 17
16 44 22 60 6 17 15 39 19 50 5 11 27 76 51 145 23 69 45 130 50 135 4 6 10
22 13 35 3 14 23 75 44 135 22 61 54 151 72 200 17 50 34 97 37 105 3 8 7 20
9 25 1 6 9 27 18 48 9 20 13 37 10 37 -4 0 -2 6 3 13 6 6 22 46 36 87 14 41
34 98 46 126 11 29 17 55 14 58 -4 3 -1 6 5 6 7 0 12 -3 13 -7z m1079 -773
c42 -61 292 -459 296 -472 4 -10 10 -18 15 -18 5 0 9 -5 9 -10 0 -6 24 -47 53
-93 85 -130 331 -520 337 -531 3 -6 22 -37 43 -69 20 -31 37 -60 37 -63 0 -5
-76 51 -90 66 -3 3 -81 66 -175 139 -93 74 -175 141 -181 148 -6 7 -14 13 -18
13 -4 0 -13 6 -20 13 -7 6 -28 23 -46 37 -18 14 -42 33 -54 44 -11 10 -29 24
-39 31 -10 7 -34 57 -54 111 -90 254 -136 385 -161 459 -15 44 -30 82 -33 85
-4 3 -10 21 -14 40 -4 19 -13 49 -20 65 -12 28 -74 198 -79 220 -2 6 -7 21
-13 35 -15 38 -53 149 -53 157 0 3 56 -83 125 -193 68 -109 129 -206 135 -214z
m-1580 363 c-6 -16 -15 -37 -20 -48 -5 -11 -23 -58 -39 -105 -72 -207 -92
-266 -98 -280 -3 -8 -7 -19 -9 -25 -1 -5 -30 -86 -64 -180 -34 -93 -67 -186
-72 -205 -6 -19 -13 -39 -17 -45 -4 -5 -23 -56 -41 -112 -18 -56 -43 -111 -54
-123 -12 -11 -124 -100 -251 -196 -126 -96 -239 -183 -250 -192 -45 -37 -105
-82 -105 -77 0 9 64 110 72 113 4 2 8 8 8 13 0 5 15 31 33 58 31 46 51 79 161
256 27 44 53 82 58 83 4 2 8 8 8 13 0 6 17 36 38 67 21 31 42 64 45 72 6 13
62 102 271 427 36 56 66 107 66 113 0 5 3 10 8 10 4 0 18 20 32 45 14 25 28
45 31 45 4 0 12 12 18 28 11 27 31 63 42 72 3 3 20 30 38 60 65 108 86 139 93
140 4 0 3 -12 -2 -27z m-830 -665 c0 -4 -80 -133 -177 -287 -98 -154 -188
-297 -200 -318 -12 -21 -25 -42 -30 -48 -5 -5 -80 -124 -168 -263 -88 -140
-204 -322 -257 -405 -54 -84 -101 -159 -105 -167 -6 -13 -59 -95 -80 -125 -5
-6 -15 -22 -23 -36 -65 -110 -116 -189 -123 -189 -5 0 -11 9 -14 20 -3 11 -9
20 -13 20 -4 0 -12 11 -18 25 -7 14 -17 31 -22 38 -20 23 -210 329 -210 337 0
5 -3 10 -8 12 -4 2 -35 48 -69 103 -34 55 -67 105 -73 112 -5 7 -10 16 -10 20
0 4 -14 26 -30 47 -17 22 -30 45 -30 52 0 7 -3 14 -7 16 -11 4 -63 85 -63 97
0 5 -3 11 -7 13 -9 3 -63 84 -63 93 0 3 -5 11 -10 18 -21 24 -130 198 -130
208 0 5 -4 9 -10 9 -5 0 -10 4 -10 9 0 9 -180 296 -199 318 -6 7 -11 14 -11
17 0 3 -36 60 -79 128 -43 68 -77 125 -76 128 5 8 2325 6 2325 -2z m5320 5 c0
-1 -27 -44 -60 -95 -33 -51 -69 -109 -80 -128 -11 -19 -33 -54 -48 -77 -33
-52 -197 -312 -257 -408 -24 -38 -49 -75 -55 -82 -5 -7 -10 -16 -10 -21 0 -4
-8 -17 -17 -28 -10 -11 -24 -30 -30 -42 -7 -12 -19 -32 -25 -44 -7 -12 -17
-27 -21 -32 -33 -45 -93 -146 -89 -151 3 -3 1 -5 -4 -5 -6 0 -25 -27 -44 -60
-19 -33 -37 -60 -42 -60 -4 0 -8 -5 -8 -10 0 -9 -236 -389 -258 -415 -5 -6
-21 -33 -37 -60 -16 -28 -41 -67 -56 -88 l-28 -38 -47 73 c-26 40 -59 90 -73
112 -14 21 -30 47 -36 57 -14 26 -138 222 -148 234 -6 8 -124 195 -200 319 -7
11 -38 59 -69 107 -32 49 -58 93 -58 99 0 5 -4 10 -10 10 -5 0 -10 4 -10 9 0
5 -18 37 -40 70 -22 33 -40 64 -40 70 0 5 -3 11 -8 13 -10 4 -182 277 -182
289 0 5 -4 9 -8 9 -5 0 -16 15 -25 33 -19 36 -39 70 -47 77 -6 5 -123 190
-151 238 l-16 28 1168 0 c643 0 1169 -1 1169 -3z m-4610 -845 c0 -5 4 -8 8 -8
5 0 76 -44 158 -98 82 -54 184 -120 227 -148 43 -27 88 -57 100 -67 11 -10 45
-31 74 -48 58 -33 57 -31 54 -174 -1 -22 -1 -56 0 -75 1 -65 1 -105 -1 -155
-1 -27 -1 -54 0 -60 1 -5 2 -42 1 -81 -1 -70 -2 -73 -66 -169 -36 -54 -65
-102 -65 -107 0 -4 -5 -8 -11 -8 -5 0 -8 -4 -5 -9 4 -5 2 -11 -2 -13 -5 -1
-30 -37 -57 -78 -27 -41 -112 -172 -190 -290 -77 -118 -156 -240 -175 -270
-19 -30 -37 -57 -40 -60 -3 -3 -28 -40 -55 -82 -28 -43 -53 -78 -57 -78 -4 0
-10 9 -13 21 -6 18 -37 86 -120 264 -13 28 -32 70 -43 95 -11 25 -37 81 -57
125 -48 103 -68 149 -70 155 -2 5 -26 59 -70 155 l-28 60 23 70 c13 38 26 75
30 80 3 6 12 28 19 50 7 22 23 69 36 105 13 36 51 144 85 240 34 96 72 204 85
240 24 68 62 173 116 325 54 152 44 137 79 117 16 -9 30 -20 30 -24z m1645 2
c2 -10 27 -86 35 -105 10 -22 60 -164 64 -180 2 -5 9 -23 15 -40 7 -16 14 -34
15 -40 2 -5 6 -17 9 -25 11 -26 48 -135 50 -145 2 -5 5 -14 8 -20 5 -8 30 -76
34 -95 1 -3 4 -12 8 -20 3 -8 33 -92 66 -186 49 -139 59 -176 52 -200 -5 -16
-38 -103 -75 -193 -36 -90 -66 -169 -66 -177 0 -8 -4 -14 -10 -14 -5 0 -9 -3
-8 -7 2 -7 -38 -114 -78 -208 -7 -16 -48 -122 -92 -235 -44 -113 -84 -204 -88
-202 -9 2 -23 26 -82 132 -13 25 -28 50 -32 55 -4 6 -19 31 -34 58 -69 125
-134 238 -146 257 -6 8 -13 23 -16 33 -4 9 -9 17 -13 17 -4 0 -13 16 -20 35
-7 19 -17 35 -22 35 -5 0 -9 5 -9 10 0 6 -35 73 -79 148 -43 75 -87 153 -98
172 -11 19 -34 60 -51 91 l-32 56 -1 254 c0 140 0 273 0 295 1 41 2 43 84 95
45 30 87 56 92 59 6 3 45 29 88 58 43 28 80 52 83 52 2 0 12 7 21 15 10 8 83
57 163 108 125 81 146 92 155 78 5 -9 10 -18 10 -21z m-2127 -187 c-25 -53
-30 -66 -139 -383 -22 -63 -44 -124 -49 -135 -5 -11 -16 -40 -24 -65 -8 -25
-19 -56 -24 -70 -15 -35 -25 -63 -27 -75 -1 -5 -26 -75 -55 -155 -28 -80 -65
-183 -82 -230 -17 -47 -34 -94 -38 -105 -15 -37 -34 -100 -32 -107 1 -5 -3 -8
-10 -8 -6 0 -8 -3 -5 -7 4 -3 2 -11 -3 -18 -5 -6 -11 -20 -13 -31 -2 -10 -7
-28 -11 -39 -19 -50 -49 -133 -106 -295 -34 -96 -65 -181 -69 -188 -5 -8 -20
9 -45 50 -20 35 -59 97 -86 138 -27 41 -68 107 -91 145 -23 39 -46 72 -51 73
-4 2 -8 8 -8 14 0 5 -13 28 -29 51 -15 23 -30 47 -32 52 -4 10 -80 128 -129
200 -15 22 -29 47 -32 55 -2 8 43 89 100 180 158 249 163 256 193 274 16 9 34
22 41 29 7 7 51 42 98 77 47 35 87 68 88 72 2 4 10 8 18 8 8 0 14 4 14 8 0 7
65 59 109 87 9 6 18 13 21 16 3 3 75 59 160 124 85 65 160 124 166 132 6 7 14
13 18 13 7 0 92 65 106 81 7 7 54 39 58 39 2 0 2 -3 0 -7z m2564 -26 c7 -7 46
-37 86 -67 39 -30 72 -58 72 -62 0 -5 6 -8 14 -8 8 0 16 -4 18 -8 2 -5 26 -26
53 -46 28 -21 64 -50 80 -65 17 -14 48 -40 70 -56 22 -17 42 -32 45 -35 3 -3
21 -17 42 -32 20 -15 42 -34 50 -41 7 -7 35 -30 62 -51 55 -42 136 -106 152
-121 6 -5 23 -19 38 -30 15 -11 37 -28 49 -38 12 -10 44 -35 70 -55 27 -21 65
-63 85 -97 45 -74 79 -126 92 -142 5 -7 10 -14 10 -17 0 -2 18 -32 40 -65 l41
-61 -36 -55 c-42 -65 -88 -139 -135 -215 -19 -30 -37 -57 -40 -60 -4 -3 -10
-12 -13 -20 -4 -8 -15 -27 -25 -42 -9 -14 -35 -56 -57 -92 -21 -36 -43 -66
-47 -66 -4 0 -8 -4 -8 -9 0 -5 -15 -33 -33 -62 -18 -30 -43 -70 -54 -89 -12
-19 -26 -40 -31 -45 -4 -6 -13 -19 -19 -29 -9 -17 -12 -15 -24 20 -7 21 -14
44 -15 49 -2 6 -28 77 -58 159 -31 82 -56 154 -56 159 0 5 -6 23 -14 40 -8 18
-21 52 -30 77 -17 53 -94 268 -103 290 -3 8 -7 20 -9 25 -2 6 -21 62 -44 125
-23 63 -43 123 -45 132 -2 9 -8 25 -13 35 -5 10 -29 74 -52 143 -24 69 -47
129 -52 134 -4 6 -8 18 -8 28 0 10 -4 26 -10 36 -5 9 -20 49 -33 87 -28 80
-111 311 -122 338 -8 20 -2 22 17 4z m-1291 -1159 c0 -4 22 -44 49 -89 28 -44
50 -82 50 -85 0 -2 11 -21 23 -42 13 -20 36 -58 50 -84 15 -27 39 -69 54 -95
14 -27 36 -64 47 -83 12 -19 28 -48 36 -65 8 -16 17 -32 20 -35 5 -5 25 -41
57 -100 10 -19 21 -37 24 -40 4 -3 21 -32 38 -65 18 -33 42 -76 53 -95 11 -19
32 -55 46 -80 14 -25 42 -76 64 -113 46 -79 64 -120 72 -162 11 -63 17 -90 22
-104 2 -8 7 -30 10 -50 3 -20 17 -85 31 -146 13 -60 26 -121 29 -135 2 -14 7
-36 10 -50 3 -14 8 -34 10 -45 2 -11 13 -63 24 -115 11 -52 25 -115 30 -140 5
-25 12 -55 14 -68 3 -13 7 -31 10 -40 3 -9 8 -30 10 -47 3 -16 8 -41 11 -55
29 -146 29 -143 -4 -196 -17 -27 -37 -57 -43 -67 -7 -10 -26 -40 -43 -67 -16
-27 -70 -113 -120 -190 -49 -78 -100 -158 -112 -178 -12 -20 -25 -41 -30 -47
-5 -5 -32 -48 -61 -95 -29 -47 -80 -127 -112 -179 -33 -51 -60 -97 -60 -101 0
-5 -4 -10 -8 -12 -4 -1 -32 -43 -62 -91 -103 -165 -136 -218 -148 -235 -30
-43 -72 -114 -72 -121 0 -19 -29 -19 -46 0 -9 10 -14 19 -10 19 4 0 2 6 -4 13
-12 13 -160 239 -160 243 0 7 -106 169 -112 172 -5 2 -8 8 -8 13 0 4 -31 57
-70 116 -38 60 -77 121 -86 138 -9 16 -45 74 -80 127 -35 54 -64 102 -64 107
0 5 -3 11 -7 13 -9 3 -123 182 -123 192 0 3 -7 14 -16 24 -8 9 -63 92 -120
185 -114 181 -110 168 -88 270 25 111 32 151 39 192 2 17 15 82 29 145 13 63
27 131 30 150 3 19 14 78 25 130 11 52 22 109 25 125 3 17 8 41 11 55 3 14 10
48 15 75 6 28 12 61 15 75 3 14 8 43 11 64 4 26 33 81 82 155 42 64 135 206
207 316 72 110 140 215 150 233 11 17 23 32 27 32 4 0 8 6 8 14 0 8 6 21 13
28 7 7 32 45 57 83 25 39 50 76 57 83 6 6 15 21 18 32 3 11 10 20 15 20 5 0
10 6 12 13 8 30 104 167 116 165 7 -2 13 -6 13 -10z m1409 -185 c7 -27 16 -52
19 -58 3 -5 6 -12 7 -15 0 -3 3 -12 7 -20 11 -27 119 -332 132 -374 8 -22 28
-79 45 -126 17 -47 49 -137 71 -200 39 -113 40 -116 23 -145 -10 -16 -20 -32
-24 -35 -3 -3 -30 -43 -58 -90 -29 -47 -92 -148 -142 -225 -49 -77 -109 -171
-132 -208 -24 -38 -50 -79 -58 -92 -8 -13 -39 -63 -69 -110 -29 -47 -55 -85
-57 -83 -1 2 -6 17 -9 33 -3 17 -7 35 -9 40 -4 17 -15 69 -20 95 -3 14 -9 45
-14 70 -9 38 -19 88 -47 219 -19 94 -57 270 -62 291 -3 14 -7 38 -9 53 -1 16
-5 31 -7 34 -3 2 13 48 35 101 22 53 41 102 42 107 2 6 8 24 15 40 7 17 28 71
47 120 19 50 39 99 44 110 11 22 33 77 34 85 1 3 16 41 33 85 49 120 56 139
59 150 1 6 10 28 20 50 10 22 18 42 19 45 4 22 39 100 45 100 4 0 13 -21 20
-47z m-2800 -218 c26 -56 53 -117 61 -138 7 -20 17 -37 21 -37 4 0 8 -6 8 -13
0 -7 12 -38 26 -67 24 -50 45 -98 49 -110 1 -3 18 -41 39 -84 20 -44 47 -103
58 -130 12 -28 27 -59 34 -70 9 -12 10 -26 4 -42 -5 -13 -7 -24 -4 -24 3 0 2
-6 -3 -12 -4 -7 -8 -22 -9 -33 0 -11 -4 -34 -8 -50 -4 -17 -10 -43 -12 -59 -2
-15 -6 -36 -9 -46 -3 -10 -8 -31 -10 -46 -3 -16 -12 -63 -20 -104 -9 -41 -17
-84 -20 -95 -2 -11 -4 -22 -5 -25 -1 -3 -3 -9 -4 -15 -1 -5 -6 -30 -11 -55
-11 -54 -8 -39 -25 -132 -8 -43 -16 -78 -19 -78 -5 1 -215 330 -261 409 -9 14
-37 59 -63 99 -26 40 -47 75 -47 79 0 4 -8 16 -18 27 -45 51 -103 159 -96 180
5 17 52 152 72 206 3 8 6 17 7 20 1 3 4 12 8 20 18 44 69 197 70 208 0 6 3 12
7 12 4 0 7 6 7 13 1 11 77 228 103 292 9 21 14 25 18 15 2 -8 26 -60 52 -115z"/>
</g>
</svg>
