<?xml version="1.0" encoding="utf-8"?>
<svg viewBox="0 0 104 105.8" xmlns="http://www.w3.org/2000/svg">
  <defs>
    <clipPath id="id3">
      <path d="M 18.667969 22.175781 L 122.664062 22.175781 L 122.664062 127.925781 L 18.667969 127.925781 Z M 18.667969 22.175781 " clip-rule="nonzero"/>
    </clipPath>
  </defs>
  <g clip-path="url(#id3)" transform="matrix(1, 0, 0, 1, -18.665955, -22.150782)">
    <path fill="rgb(100%, 100%, 100%)" d="M 103.839844 73.945312 L 86.5 46.53125 L 121.179688 46.53125 Z M 94.734375 88.351562 L 83.378906 56.523438 L 99.871094 69.660156 L 103.203125 74.941406 Z M 84.671875 104.246094 L 81.574219 89.605469 L 88.132812 72.992188 L 94.011719 89.5 Z M 70.664062 126.394531 L 56.738281 104.371094 L 59.796875 89.03125 L 70.640625 72.503906 L 80.511719 89.773438 L 83.867188 105.558594 Z M 52.453125 75.089844 L 58.734375 88.882812 L 55.890625 103.078125 L 47.316406 89.519531 Z M 42.03125 68.746094 L 57.972656 56.484375 L 46.613281 88.351562 L 38.125 74.941406 Z M 54.828125 46.554688 L 48.164062 57.097656 L 41.203125 68.089844 L 41.160156 68.152344 L 37.488281 73.945312 L 20.148438 46.53125 L 54.828125 46.53125 Z M 58.628906 54.660156 L 43.6875 66.160156 L 56.253906 46.296875 L 68.5625 26.820312 Z M 70.132812 61.574219 L 59.710938 54.765625 L 70.132812 25.546875 Z M 71.195312 25.570312 L 81.617188 54.765625 L 71.195312 61.574219 L 71.195312 25.546875 Z M 59.371094 87.738281 L 52.960938 73.667969 L 59.328125 55.78125 L 70.113281 62.828125 L 70.113281 71.335938 Z M 80.914062 88.351562 L 71.195312 71.335938 L 71.195312 62.828125 L 81.976562 55.78125 L 87.582031 71.484375 Z M 85.074219 46.277344 L 98.128906 66.921875 L 82.675781 54.636719 L 72.765625 26.800781 Z M 122.601562 45.746094 C 122.507812 45.578125 122.332031 45.46875 122.136719 45.472656 L 85.816406 45.472656 L 71.109375 22.214844 L 71.089844 22.214844 L 71.046875 22.175781 L 70.34375 22.175781 L 70.304688 22.214844 L 70.28125 22.214844 L 70.238281 22.257812 L 70.21875 22.257812 L 55.507812 45.472656 L 19.191406 45.472656 C 18.898438 45.476562 18.664062 45.714844 18.667969 46.007812 C 18.671875 46.105469 18.695312 46.195312 18.746094 46.277344 L 37.042969 75.21875 L 70.21875 127.691406 C 70.375 127.9375 70.707031 128.007812 70.953125 127.847656 C 71.015625 127.808594 71.066406 127.753906 71.109375 127.691406 L 104.285156 75.21875 L 122.582031 46.277344 C 122.683594 46.117188 122.691406 45.914062 122.601562 45.746094 " fill-opacity="1" fill-rule="nonzero"/>
  </g>
  <g fill="rgb(100%, 100%, 100%)" fill-opacity="1">
    <g transform="translate(318.475127, 104.064327)">
      <g/>
    </g>
  </g>
</svg>