<svg xmlns="http://www.w3.org/2000/svg" xmlns:xlink="http://www.w3.org/1999/xlink" width="700" zoomAndPan="magnify" viewBox="0 0 525 149.999998" height="200" preserveAspectRatio="xMidYMid meet" version="1.0"><defs><g><g id="id1"/><g id="id2"/></g><clipPath id="id3"><path d="M 18.667969 22.175781 L 122.664062 22.175781 L 122.664062 127.925781 L 18.667969 127.925781 Z M 18.667969 22.175781 " clip-rule="nonzero"/></clipPath></defs><g clip-path="url(#id3)"><path fill="rgb(100%, 100%, 100%)" d="M 103.839844 73.945312 L 86.5 46.53125 L 121.179688 46.53125 Z M 94.734375 88.351562 L 83.378906 56.523438 L 99.871094 69.660156 L 103.203125 74.941406 Z M 84.671875 104.246094 L 81.574219 89.605469 L 88.132812 72.992188 L 94.011719 89.5 Z M 70.664062 126.394531 L 56.738281 104.371094 L 59.796875 89.03125 L 70.640625 72.503906 L 80.511719 89.773438 L 83.867188 105.558594 Z M 52.453125 75.089844 L 58.734375 88.882812 L 55.890625 103.078125 L 47.316406 89.519531 Z M 42.03125 68.746094 L 57.972656 56.484375 L 46.613281 88.351562 L 38.125 74.941406 Z M 54.828125 46.554688 L 48.164062 57.097656 L 41.203125 68.089844 L 41.160156 68.152344 L 37.488281 73.945312 L 20.148438 46.53125 L 54.828125 46.53125 Z M 58.628906 54.660156 L 43.6875 66.160156 L 56.253906 46.296875 L 68.5625 26.820312 Z M 70.132812 61.574219 L 59.710938 54.765625 L 70.132812 25.546875 Z M 71.195312 25.570312 L 81.617188 54.765625 L 71.195312 61.574219 L 71.195312 25.546875 Z M 59.371094 87.738281 L 52.960938 73.667969 L 59.328125 55.78125 L 70.113281 62.828125 L 70.113281 71.335938 Z M 80.914062 88.351562 L 71.195312 71.335938 L 71.195312 62.828125 L 81.976562 55.78125 L 87.582031 71.484375 Z M 85.074219 46.277344 L 98.128906 66.921875 L 82.675781 54.636719 L 72.765625 26.800781 Z M 122.601562 45.746094 C 122.507812 45.578125 122.332031 45.46875 122.136719 45.472656 L 85.816406 45.472656 L 71.109375 22.214844 L 71.089844 22.214844 L 71.046875 22.175781 L 70.34375 22.175781 L 70.304688 22.214844 L 70.28125 22.214844 L 70.238281 22.257812 L 70.21875 22.257812 L 55.507812 45.472656 L 19.191406 45.472656 C 18.898438 45.476562 18.664062 45.714844 18.667969 46.007812 C 18.671875 46.105469 18.695312 46.195312 18.746094 46.277344 L 37.042969 75.21875 L 70.21875 127.691406 C 70.375 127.9375 70.707031 128.007812 70.953125 127.847656 C 71.015625 127.808594 71.066406 127.753906 71.109375 127.691406 L 104.285156 75.21875 L 122.582031 46.277344 C 122.683594 46.117188 122.691406 45.914062 122.601562 45.746094 " fill-opacity="1" fill-rule="nonzero"/></g><g fill="rgb(100%, 100%, 100%)" fill-opacity="1"><g transform="translate(175.658725, 104.064327)"><g><path d="M 15.90625 0.625 C 13.382812 0.625 11.117188 0.0507812 9.109375 -1.09375 C 7.097656 -2.25 5.503906 -3.851562 4.328125 -5.90625 C 3.160156 -7.957031 2.578125 -10.328125 2.578125 -13.015625 C 2.578125 -15.710938 3.171875 -18.082031 4.359375 -20.125 C 5.546875 -22.175781 7.144531 -23.78125 9.15625 -24.9375 C 11.175781 -26.09375 13.441406 -26.671875 15.953125 -26.671875 C 18.441406 -26.671875 20.691406 -26.09375 22.703125 -24.9375 C 24.710938 -23.78125 26.304688 -22.175781 27.484375 -20.125 C 28.660156 -18.082031 29.25 -15.710938 29.25 -13.015625 C 29.25 -10.328125 28.660156 -7.957031 27.484375 -5.90625 C 26.304688 -3.851562 24.703125 -2.25 22.671875 -1.09375 C 20.648438 0.0507812 18.394531 0.625 15.90625 0.625 Z M 15.90625 -5.203125 C 17.65625 -5.203125 19.175781 -5.859375 20.46875 -7.171875 C 21.769531 -8.484375 22.421875 -10.429688 22.421875 -13.015625 C 22.421875 -15.609375 21.769531 -17.5625 20.46875 -18.875 C 19.175781 -20.1875 17.671875 -20.84375 15.953125 -20.84375 C 14.171875 -20.84375 12.640625 -20.1875 11.359375 -18.875 C 10.085938 -17.5625 9.453125 -15.609375 9.453125 -13.015625 C 9.453125 -10.429688 10.085938 -8.484375 11.359375 -7.171875 C 12.640625 -5.859375 14.15625 -5.203125 15.90625 -5.203125 Z M 15.90625 -5.203125 "/></g></g></g><g fill="rgb(100%, 100%, 100%)" fill-opacity="1"><g transform="translate(207.466649, 104.064327)"><g><path d="M 3.40625 0 L 3.40625 -37.796875 L 10.125 -37.796875 L 10.125 0 Z M 3.40625 0 "/></g></g></g><g fill="rgb(100%, 100%, 100%)" fill-opacity="1"><g transform="translate(221.061131, 104.064327)"><g><path d="M 7.03125 -30.078125 C 5.8125 -30.078125 4.804688 -30.441406 4.015625 -31.171875 C 3.222656 -31.910156 2.828125 -32.84375 2.828125 -33.96875 C 2.828125 -35.082031 3.222656 -36 4.015625 -36.71875 C 4.804688 -37.4375 5.8125 -37.796875 7.03125 -37.796875 C 8.257812 -37.796875 9.265625 -37.4375 10.046875 -36.71875 C 10.835938 -36 11.234375 -35.082031 11.234375 -33.96875 C 11.234375 -32.84375 10.835938 -31.910156 10.046875 -31.171875 C 9.265625 -30.441406 8.257812 -30.078125 7.03125 -30.078125 Z M 3.671875 0 L 3.671875 -26.046875 L 10.390625 -26.046875 L 10.390625 0 Z M 3.671875 0 "/></g></g></g><g fill="rgb(100%, 100%, 100%)" fill-opacity="1"><g transform="translate(235.07552, 104.064327)"><g><path d="M 3.40625 0 L 3.40625 -26.046875 L 9.34375 -26.046875 L 9.921875 -22.515625 C 10.765625 -23.773438 11.875 -24.78125 13.25 -25.53125 C 14.632812 -26.289062 16.238281 -26.671875 18.0625 -26.671875 C 22.082031 -26.671875 24.9375 -25.113281 26.625 -22 C 27.5625 -23.4375 28.828125 -24.570312 30.421875 -25.40625 C 32.015625 -26.25 33.753906 -26.671875 35.640625 -26.671875 C 39.035156 -26.671875 41.644531 -25.65625 43.46875 -23.625 C 45.289062 -21.59375 46.203125 -18.617188 46.203125 -14.703125 L 46.203125 0 L 39.484375 0 L 39.484375 -14.0625 C 39.484375 -16.3125 39.050781 -18.03125 38.1875 -19.21875 C 37.332031 -20.40625 36.015625 -21 34.234375 -21 C 32.410156 -21 30.945312 -20.332031 29.84375 -19 C 28.738281 -17.675781 28.1875 -15.820312 28.1875 -13.4375 L 28.1875 0 L 21.46875 0 L 21.46875 -14.0625 C 21.46875 -16.3125 21.03125 -18.03125 20.15625 -19.21875 C 19.28125 -20.40625 17.9375 -21 16.125 -21 C 14.332031 -21 12.882812 -20.332031 11.78125 -19 C 10.675781 -17.675781 10.125 -15.820312 10.125 -13.4375 L 10.125 0 Z M 3.40625 0 "/></g></g></g><g fill="rgb(100%, 100%, 100%)" fill-opacity="1"><g transform="translate(284.257085, 104.064327)"><g><path d="M 3.40625 11.546875 L 3.40625 -26.046875 L 9.390625 -26.046875 L 10.125 -22.3125 C 10.96875 -23.46875 12.082031 -24.484375 13.46875 -25.359375 C 14.851562 -26.234375 16.644531 -26.671875 18.84375 -26.671875 C 21.289062 -26.671875 23.476562 -26.070312 25.40625 -24.875 C 27.332031 -23.6875 28.851562 -22.0625 29.96875 -20 C 31.09375 -17.9375 31.65625 -15.59375 31.65625 -12.96875 C 31.65625 -10.34375 31.09375 -8.003906 29.96875 -5.953125 C 28.851562 -3.910156 27.332031 -2.300781 25.40625 -1.125 C 23.476562 0.0390625 21.289062 0.625 18.84375 0.625 C 16.882812 0.625 15.171875 0.257812 13.703125 -0.46875 C 12.234375 -1.207031 11.039062 -2.238281 10.125 -3.5625 L 10.125 11.546875 Z M 17.4375 -5.25 C 19.5625 -5.25 21.320312 -5.96875 22.71875 -7.40625 C 24.125 -8.84375 24.828125 -10.695312 24.828125 -12.96875 C 24.828125 -15.238281 24.125 -17.109375 22.71875 -18.578125 C 21.320312 -20.054688 19.5625 -20.796875 17.4375 -20.796875 C 15.257812 -20.796875 13.476562 -20.066406 12.09375 -18.609375 C 10.71875 -17.160156 10.03125 -15.296875 10.03125 -13.015625 C 10.03125 -10.742188 10.71875 -8.878906 12.09375 -7.421875 C 13.476562 -5.972656 15.257812 -5.25 17.4375 -5.25 Z M 17.4375 -5.25 "/></g></g></g><g fill="rgb(100%, 100%, 100%)" fill-opacity="1"><g transform="translate(318.475127, 104.064327)"><g/></g></g><g fill="rgb(100%, 100%, 100%)" fill-opacity="1"><g transform="translate(332.384538, 104.064327)"><g><path d="M 12.28125 0.625 C 10.113281 0.625 8.3125 0.257812 6.875 -0.46875 C 5.4375 -1.207031 4.367188 -2.1875 3.671875 -3.40625 C 2.972656 -4.632812 2.625 -5.96875 2.625 -7.40625 C 2.625 -10.0625 3.640625 -12.109375 5.671875 -13.546875 C 7.703125 -14.984375 10.46875 -15.703125 13.96875 -15.703125 L 21 -15.703125 L 21 -16.015625 C 21 -18.285156 20.40625 -20.003906 19.21875 -21.171875 C 18.03125 -22.347656 16.4375 -22.9375 14.4375 -22.9375 C 12.71875 -22.9375 11.238281 -22.507812 10 -21.65625 C 8.757812 -20.800781 7.984375 -19.550781 7.671875 -17.90625 L 3.15625 -17.90625 C 3.320312 -19.789062 3.957031 -21.378906 5.0625 -22.671875 C 6.164062 -23.972656 7.539062 -24.960938 9.1875 -25.640625 C 10.832031 -26.328125 12.582031 -26.671875 14.4375 -26.671875 C 18.070312 -26.671875 20.804688 -25.695312 22.640625 -23.75 C 24.484375 -21.8125 25.40625 -19.234375 25.40625 -16.015625 L 25.40625 0 L 21.46875 0 L 21.203125 -4.671875 C 20.472656 -3.203125 19.398438 -1.953125 17.984375 -0.921875 C 16.566406 0.109375 14.664062 0.625 12.28125 0.625 Z M 12.96875 -3.09375 C 14.644531 -3.09375 16.085938 -3.53125 17.296875 -4.40625 C 18.503906 -5.28125 19.421875 -6.414062 20.046875 -7.8125 C 20.679688 -9.21875 21 -10.691406 21 -12.234375 L 21 -12.28125 L 14.328125 -12.28125 C 11.742188 -12.28125 9.914062 -11.832031 8.84375 -10.9375 C 7.78125 -10.050781 7.25 -8.941406 7.25 -7.609375 C 7.25 -6.242188 7.742188 -5.148438 8.734375 -4.328125 C 9.734375 -3.503906 11.144531 -3.09375 12.96875 -3.09375 Z M 12.96875 -3.09375 "/></g></g></g><g fill="rgb(100%, 100%, 100%)" fill-opacity="1"><g transform="translate(360.780728, 104.064327)"><g><path d="M 13.90625 -8.1875 C 12.4375 -8.1875 11.09375 -8.378906 9.875 -8.765625 L 7.25 -6.296875 C 7.632812 -6.015625 8.113281 -5.773438 8.6875 -5.578125 C 9.269531 -5.390625 10.101562 -5.21875 11.1875 -5.0625 C 12.269531 -4.90625 13.789062 -4.738281 15.75 -4.5625 C 19.25 -4.320312 21.75 -3.519531 23.25 -2.15625 C 24.757812 -0.789062 25.515625 0.992188 25.515625 3.203125 C 25.515625 4.703125 25.101562 6.132812 24.28125 7.5 C 23.457031 8.875 22.195312 10 20.5 10.875 C 18.800781 11.75 16.625 12.1875 13.96875 12.1875 C 11.625 12.1875 9.539062 11.878906 7.71875 11.265625 C 5.894531 10.648438 4.472656 9.71875 3.453125 8.46875 C 2.441406 7.226562 1.9375 5.664062 1.9375 3.78125 C 1.9375 2.800781 2.195312 1.738281 2.71875 0.59375 C 3.25 -0.539062 4.234375 -1.613281 5.671875 -2.625 C 4.898438 -2.9375 4.242188 -3.273438 3.703125 -3.640625 C 3.160156 -4.015625 2.660156 -4.425781 2.203125 -4.875 L 2.203125 -6.09375 L 6.671875 -10.5 C 4.597656 -12.25 3.5625 -14.5625 3.5625 -17.4375 C 3.5625 -19.144531 3.960938 -20.695312 4.765625 -22.09375 C 5.578125 -23.5 6.753906 -24.613281 8.296875 -25.4375 C 9.835938 -26.257812 11.707031 -26.671875 13.90625 -26.671875 C 15.414062 -26.671875 16.78125 -26.460938 18 -26.046875 L 27.609375 -26.046875 L 27.609375 -22.734375 L 22.734375 -22.515625 C 23.742188 -21.046875 24.25 -19.351562 24.25 -17.4375 C 24.25 -15.71875 23.835938 -14.15625 23.015625 -12.75 C 22.191406 -11.351562 21.019531 -10.242188 19.5 -9.421875 C 17.976562 -8.597656 16.113281 -8.1875 13.90625 -8.1875 Z M 13.90625 -11.8125 C 15.757812 -11.8125 17.238281 -12.289062 18.34375 -13.25 C 19.445312 -14.21875 20 -15.613281 20 -17.4375 C 20 -19.21875 19.445312 -20.585938 18.34375 -21.546875 C 17.238281 -22.515625 15.757812 -23 13.90625 -23 C 12.019531 -23 10.523438 -22.515625 9.421875 -21.546875 C 8.316406 -20.585938 7.765625 -19.21875 7.765625 -17.4375 C 7.765625 -15.613281 8.316406 -14.21875 9.421875 -13.25 C 10.523438 -12.289062 12.019531 -11.8125 13.90625 -11.8125 Z M 6.25 3.359375 C 6.25 5.109375 6.984375 6.410156 8.453125 7.265625 C 9.921875 8.128906 11.757812 8.5625 13.96875 8.5625 C 16.132812 8.5625 17.875 8.085938 19.1875 7.140625 C 20.5 6.191406 21.15625 4.929688 21.15625 3.359375 C 21.15625 2.242188 20.695312 1.273438 19.78125 0.453125 C 18.875 -0.367188 17.195312 -0.851562 14.75 -1 C 12.820312 -1.132812 11.160156 -1.304688 9.765625 -1.515625 C 8.328125 -0.753906 7.378906 0.0703125 6.921875 0.96875 C 6.472656 1.863281 6.25 2.660156 6.25 3.359375 Z M 6.25 3.359375 "/></g></g></g><g fill="rgb(100%, 100%, 100%)" fill-opacity="1"><g transform="translate(389.754283, 104.064327)"><g><path d="M 15.328125 0.625 C 12.847656 0.625 10.644531 0.0546875 8.71875 -1.078125 C 6.789062 -2.210938 5.273438 -3.796875 4.171875 -5.828125 C 3.066406 -7.859375 2.515625 -10.253906 2.515625 -13.015625 C 2.515625 -15.742188 3.054688 -18.128906 4.140625 -20.171875 C 5.234375 -22.222656 6.75 -23.816406 8.6875 -24.953125 C 10.632812 -26.097656 12.882812 -26.671875 15.4375 -26.671875 C 17.957031 -26.671875 20.132812 -26.097656 21.96875 -24.953125 C 23.8125 -23.816406 25.222656 -22.320312 26.203125 -20.46875 C 27.179688 -18.613281 27.671875 -16.617188 27.671875 -14.484375 C 27.671875 -14.097656 27.660156 -13.710938 27.640625 -13.328125 C 27.617188 -12.941406 27.609375 -12.503906 27.609375 -12.015625 L 6.875 -12.015625 C 6.976562 -10.023438 7.441406 -8.375 8.265625 -7.0625 C 9.085938 -5.75 10.117188 -4.757812 11.359375 -4.09375 C 12.609375 -3.425781 13.929688 -3.09375 15.328125 -3.09375 C 17.148438 -3.09375 18.671875 -3.515625 19.890625 -4.359375 C 21.117188 -5.203125 22.015625 -6.335938 22.578125 -7.765625 L 26.9375 -7.765625 C 26.226562 -5.347656 24.882812 -3.34375 22.90625 -1.75 C 20.9375 -0.164062 18.410156 0.625 15.328125 0.625 Z M 15.328125 -22.9375 C 13.234375 -22.9375 11.367188 -22.296875 9.734375 -21.015625 C 8.109375 -19.742188 7.175781 -17.882812 6.9375 -15.4375 L 23.3125 -15.4375 C 23.207031 -17.78125 22.398438 -19.613281 20.890625 -20.9375 C 19.390625 -22.269531 17.535156 -22.9375 15.328125 -22.9375 Z M 15.328125 -22.9375 "/></g></g></g><g fill="rgb(100%, 100%, 100%)" fill-opacity="1"><g transform="translate(419.620145, 104.064327)"><g><path d="M 3.625 0 L 3.625 -26.046875 L 7.609375 -26.046875 L 7.875 -21.375 C 8.71875 -23.007812 9.925781 -24.300781 11.5 -25.25 C 13.070312 -26.195312 14.859375 -26.671875 16.859375 -26.671875 C 19.929688 -26.671875 22.382812 -25.734375 24.21875 -23.859375 C 26.0625 -21.984375 26.984375 -19.101562 26.984375 -15.21875 L 26.984375 0 L 22.578125 0 L 22.578125 -14.75 C 22.578125 -20.175781 20.335938 -22.890625 15.859375 -22.890625 C 13.617188 -22.890625 11.753906 -22.070312 10.265625 -20.4375 C 8.773438 -18.8125 8.03125 -16.5 8.03125 -13.5 L 8.03125 0 Z M 3.625 0 "/></g></g></g><g fill="rgb(100%, 100%, 100%)" fill-opacity="1"><g transform="translate(449.643466, 104.064327)"><g><path d="M 15.59375 0.625 C 13.101562 0.625 10.867188 0.0546875 8.890625 -1.078125 C 6.921875 -2.210938 5.363281 -3.800781 4.21875 -5.84375 C 3.082031 -7.894531 2.515625 -10.285156 2.515625 -13.015625 C 2.515625 -15.742188 3.082031 -18.128906 4.21875 -20.171875 C 5.363281 -22.222656 6.921875 -23.816406 8.890625 -24.953125 C 10.867188 -26.097656 13.101562 -26.671875 15.59375 -26.671875 C 18.675781 -26.671875 21.273438 -25.863281 23.390625 -24.25 C 25.503906 -22.644531 26.84375 -20.492188 27.40625 -17.796875 L 22.890625 -17.796875 C 22.535156 -19.410156 21.675781 -20.660156 20.3125 -21.546875 C 18.945312 -22.441406 17.359375 -22.890625 15.546875 -22.890625 C 14.066406 -22.890625 12.679688 -22.519531 11.390625 -21.78125 C 10.097656 -21.050781 9.046875 -19.953125 8.234375 -18.484375 C 7.429688 -17.015625 7.03125 -15.191406 7.03125 -13.015625 C 7.03125 -10.847656 7.429688 -9.03125 8.234375 -7.5625 C 9.046875 -6.09375 10.097656 -4.976562 11.390625 -4.21875 C 12.679688 -3.46875 14.066406 -3.09375 15.546875 -3.09375 C 17.359375 -3.09375 18.945312 -3.539062 20.3125 -4.4375 C 21.675781 -5.332031 22.535156 -6.601562 22.890625 -8.25 L 27.40625 -8.25 C 26.882812 -5.625 25.554688 -3.488281 23.421875 -1.84375 C 21.285156 -0.195312 18.675781 0.625 15.59375 0.625 Z M 15.59375 0.625 "/></g></g></g><g fill="rgb(100%, 100%, 100%)" fill-opacity="1"><g transform="translate(479.561811, 104.064327)"><g><path d="M 6.453125 11.546875 L 12.921875 -2.515625 L 11.390625 -2.515625 L 1.046875 -26.046875 L 5.828125 -26.046875 L 14.4375 -5.78125 L 23.578125 -26.046875 L 28.140625 -26.046875 L 11.078125 11.546875 Z M 6.453125 11.546875 "/></g></g></g></svg>